<svg viewBox="0 0 25 23" fill="none" xmlns="http://www.w3.org/2000/svg">
<path fill-rule="evenodd" clip-rule="evenodd" d="M12.7015 0.966348C12.9819 0.433759 12.3377 -0.211096 11.8099 0.0668774C11.3806 0.239679 11.2716 0.867413 11.6058 1.18501C11.9212 1.51594 12.5386 1.40049 12.7015 0.966348ZM6.82739 1.20127C6.86008 0.848327 6.45425 0.551642 6.13366 0.684942C5.68739 0.805035 5.63787 1.51495 6.07082 1.68433C6.39759 1.86642 6.86141 1.58441 6.82739 1.20127ZM17.7596 1.69499C17.2586 1.63384 17.1793 0.838195 17.6617 0.67799C18.0358 0.493694 18.379 0.839296 18.4337 1.19749C18.3553 1.50335 18.1018 1.7834 17.7596 1.69499ZM8.64363 3.9218C8.72608 3.29296 7.96127 2.783 7.42529 3.12542C6.92333 3.38468 6.85432 4.15819 7.30978 4.49536C7.78087 4.92461 8.61578 4.55675 8.64363 3.9218ZM15.6073 3.48858C15.8465 2.86611 16.8154 2.84727 17.0876 3.45324C17.3566 3.9248 17.0257 4.50876 16.5464 4.66908C15.9115 4.78881 15.3084 4.09553 15.6073 3.48858ZM12.1071 3.66368C11.6037 3.70012 11.1213 4.0988 11.1265 4.63384C11.0978 5.07104 11.407 5.42814 11.7742 5.61023C11.8112 5.61247 11.8486 5.61547 11.8863 5.6185C12.0937 5.63513 12.3091 5.65241 12.4958 5.54676C12.9781 5.33128 13.2152 4.68483 12.9482 4.21535C12.805 3.875 12.4411 3.73131 12.1071 3.66368ZM2.68473 5.41335C3.17435 5.10933 3.83491 5.66418 3.64955 6.20141C3.54749 6.66613 2.92906 6.8552 2.57553 6.55851C2.19815 6.28054 2.25796 5.6122 2.68473 5.41335ZM21.8635 5.99018C21.913 5.4604 21.2275 5.08667 20.8121 5.41246C20.3858 5.67686 20.4322 6.38262 20.8864 6.58881C21.2987 6.83755 21.8914 6.47324 21.8635 5.99018ZM13.5004 6.3743C14.1859 6.12555 15.0001 6.42322 15.3908 7.04056C15.9062 7.79523 15.632 8.94455 14.8322 9.37759C14.0034 9.88976 12.7933 9.45561 12.4873 8.5208C12.1398 7.68394 12.646 6.63662 13.5004 6.3743ZM11.6276 7.18328C11.2606 6.39827 10.2382 6.09437 9.47844 6.45661C8.66872 6.8219 8.29618 7.89943 8.71569 8.69275C9.0898 9.5131 10.1804 9.84928 10.9534 9.40584C11.7255 9.01132 12.0594 7.94737 11.6276 7.18328ZM5.45122 7.84731C5.50897 7.35288 5.97073 7.03112 6.43662 6.99786C6.93858 7.059 7.33956 7.45279 7.39417 7.96593C7.36124 8.47394 6.9726 8.97046 6.43964 8.9674C5.85329 9.0184 5.33923 8.42918 5.45122 7.84731ZM18.7574 7.96524C18.7842 7.2667 17.9483 6.75147 17.3463 7.10539C16.7 7.4132 16.6515 8.4313 17.2742 8.7928C17.8736 9.22694 18.7987 8.70536 18.7574 7.96524ZM7.84172 9.71388C8.54575 9.51821 9.35075 9.85342 9.69604 10.5071C10.0743 11.165 9.91966 12.079 9.33222 12.5616C8.5788 13.2695 7.18926 12.9852 6.78828 12.0192C6.32748 11.1337 6.88719 9.94698 7.84172 9.71388ZM17.3265 10.4087C16.9586 9.77892 16.1545 9.51244 15.4701 9.71019C14.5085 9.97618 13.9992 11.2087 14.5053 12.0807C14.9228 12.9238 16.0979 13.2069 16.8565 12.6677C17.5808 12.2034 17.813 11.129 17.3265 10.4087ZM3.31351 10.5321C3.92165 10.2997 4.59578 10.9776 4.3494 11.5866C4.1989 12.1415 3.42477 12.3466 3.02488 11.9375C2.55694 11.5534 2.73019 10.6986 3.31351 10.5321ZM20.6652 10.4279C20.1484 10.456 19.7798 10.9068 19.7973 11.4158C19.8983 11.6531 20.021 11.9009 20.2601 12.0237C20.7703 12.3079 21.4919 11.8968 21.4537 11.2919C21.4866 10.8339 21.0817 10.4945 20.6652 10.4279ZM0.323283 10.8308C0.689161 10.6695 1.14172 10.9898 1.05819 11.4002C1.03857 11.8649 0.359363 12.0436 0.109835 11.6553C-0.110636 11.3856 0.021332 10.9698 0.323283 10.8308ZM24.1655 11.0734C24.0635 10.7694 23.6501 10.6362 23.3925 10.8215C22.9638 11.0525 23.1318 11.852 23.6512 11.8042C24.0212 11.8603 24.3387 11.4054 24.1655 11.0734ZM9.82896 13.0523C10.7917 12.7994 11.8266 13.6104 11.8327 14.6117C11.8955 15.6236 10.8762 16.5208 9.89071 16.2871C9.12893 16.1632 8.5312 15.422 8.5559 14.6445C8.55384 13.9008 9.10943 13.2096 9.82896 13.0523ZM15.6692 14.6242C15.6847 13.5997 14.6189 12.7742 13.6417 13.0501C13.0624 13.1955 12.5718 13.6779 12.4438 14.271C12.1903 15.161 12.8603 16.1687 13.7684 16.2874C14.7333 16.4844 15.7207 15.6173 15.6692 14.6242ZM6.29045 13.6666C6.96663 13.55 7.60056 14.312 7.32633 14.9606C7.12632 15.6516 6.13063 15.8391 5.69042 15.2746C5.17405 14.7325 5.55954 13.7414 6.29045 13.6666ZM18.7685 14.6297C18.8149 13.9687 18.0748 13.4419 17.4719 13.697C16.7431 13.931 16.6216 15.0531 17.2894 15.4344C17.879 15.8592 18.7928 15.3574 18.7685 14.6297ZM20.5974 16.8633C20.3613 16.4187 20.7901 15.8295 21.2788 15.9118C21.5085 15.9079 21.6731 16.0804 21.8218 16.2365L21.8478 16.2637L21.8534 16.3087C21.885 16.5622 21.9212 16.8528 21.7169 17.0444C21.423 17.4202 20.7571 17.3129 20.5974 16.8633ZM3.69402 16.726C3.79669 16.1866 3.13952 15.7286 2.68284 16.0357C2.24783 16.2596 2.23233 16.9592 2.65281 17.2049C3.0446 17.4755 3.63942 17.2029 3.69402 16.726ZM11.7051 17.0342C12.3029 16.7677 13.0646 17.2935 13.0079 17.9586C13.0522 18.6936 12.1102 19.2026 11.5256 18.7612C10.8763 18.3823 10.9846 17.2673 11.7051 17.0342ZM8.67249 18.7913C8.71886 18.2157 8.03554 17.7483 7.52631 18.0189C7.16758 18.1543 7.02132 18.5541 7.01503 18.913C7.13767 19.2423 7.38708 19.5887 7.76954 19.597C8.23131 19.6668 8.68799 19.264 8.67249 18.7913ZM15.9908 18.027C16.5144 17.7001 17.2586 18.1696 17.2091 18.7853C17.2225 19.4286 16.3815 19.8408 15.8939 19.4181C15.4219 19.0868 15.4795 18.2905 15.9908 18.027ZM17.8822 20.8368C17.504 20.918 17.2298 21.3469 17.4627 21.7029C17.7018 22.1162 18.3997 21.9684 18.444 21.4864C18.5079 21.1303 18.1864 20.8993 17.8822 20.8368ZM5.77808 21.3938C5.87082 21.1117 6.09553 20.8313 6.42436 20.9046C6.90368 20.939 7.04594 21.6687 6.62643 21.8936C6.24917 22.1506 5.8115 21.7987 5.77808 21.3938ZM12.3945 21.3189C12.0419 21.0972 11.507 21.3002 11.4153 21.7176C11.2476 22.1392 11.6503 22.649 12.0967 22.5961C12.3369 22.6024 12.5223 22.4296 12.6667 22.2568C12.6948 22.1402 12.7233 22.0235 12.7553 21.907L12.7533 21.8996C12.694 21.6774 12.6249 21.4188 12.3945 21.3189Z" fill="#3CC8C8"/>
</svg>
