<svg width="17" height="28" viewBox="0 0 17 28" fill="none" xmlns="http://www.w3.org/2000/svg">
<g opacity="0.8">
<path d="M8.14222 0L0 13.5099L8.14222 18.3228V9.80907V0Z" fill="#333333"/>
<path d="M8.14245 20.9719L8.04224 21.0941V27.3425L8.14245 27.6352L16.2896 16.1615L8.14245 20.9719Z" fill="#333333"/>
<path d="M8.14221 20.9719L8.04199 21.0941V27.3425L8.14221 27.6352L16.2893 16.1615L8.14221 20.9719Z" fill="#8BA1BE" fill-opacity="0.2"/>
<path d="M8.14222 27.6352V20.9719L0 16.1615L8.14222 27.6352Z" fill="#333333"/>
<path d="M7.96436 0.604485L8.1422 0L16.2844 13.5099L8.14209 18.3231L7.96436 18.1452V0.604485Z" fill="#333333"/>
<path d="M7.96436 0.604485L8.1422 0L16.2844 13.5099L8.14209 18.3231L7.96436 18.1452V0.604485Z" fill="#8BA1BE" fill-opacity="0.2"/>
<path d="M0 13.5096L8.1421 18.3224V9.80873L0 13.5096Z" fill="#333333"/>
</g>
</svg>
